# xmcd
#
# Track frame offsets: 
#        193
#        28212
#        48096
#        77579
#        101413
#        118809
#        138046
#        157658
#        183396
#        200964
#        222115
#        250355
#        296667
#        313464
#
# Disc length: 4482 seconds
#
# Revision: 0
# Processed by: cddbd v1.5.2PL0 Copyright (c) Steve Scherf et al.
# Submitted via: ExactAudioCopyFreeDBPlugin 1.0
#
DISCID=c911800e
DTITLE=Nona Hendryx - The Art Of Defense
DYEAR=1984
DGENRE=R&B
TTITLE0=I Sweat (Going Through The Motions)
TTITLE1=Soft Targets
TTITLE2=The Life
TTITLE3=To The Bone
TTITLE4=Electricity
TTITLE5=Ghost Love
TTITLE6=I Want You
TTITLE7=I Sweat (Going Through The Motions) (Dance Remix)
TTITLE8=I Sweat (Going Through The Motions) (Single Version)
TTITLE9=I Sweat (Going Through The Motions) (Instrumental)
TTITLE10=To The Bone (12" Version)
TTITLE11=To The Bone (Pygmy Dub Mix - Parts I and II)
TTITLE12=Heart Of A Woman
TTITLE13=Heart Of A Woman (Extended Remix)
EXTD=
EXTT0=
EXTT1=
EXTT2=
EXTT3=
EXTT4=
EXTT5=
EXTT6=
EXTT7=
EXTT8=
EXTT9=
EXTT10=
EXTT11=
EXTT12=
EXTT13=
PLAYORDER=
